<?xml version="1.0" encoding="utf-8"?>
<!-- Generator: Adobe Illustrator 26.1.0, SVG Export Plug-In . SVG Version: 6.00 Build 0)  -->
<svg version="1.1" id="Layer_1" xmlns="http://www.w3.org/2000/svg" xmlns:xlink="http://www.w3.org/1999/xlink" x="0px" y="0px"
	 viewBox="0 0 948.6 136.8" style="enable-background:new 0 0 948.6 136.8;" xml:space="preserve">
<style type="text/css">
	.st0{fill:#008800;}
</style>
<g>
	<path class="st0" d="M88.3,9.6L71.9,9.7c-1.2,0-2.1,1-2.1,2.1v4.1c0,2-2.4,2.9-3.7,1.4c-6-6.5-14.6-9.7-25.9-9.6
		C27.8,7.8,18,12.3,10.8,20.9C3.4,29.7-0.2,40.7,0,53.6c0.1,12.9,3.8,23.7,11.4,32.2c7.5,8.5,17.4,12.8,29.6,12.7
		c10.9-0.1,19.5-3.7,25.7-11c1.3-1.5,3.7-0.6,3.8,1.3c0.1,16.8-13.7,30.5-30.5,30.1c-13.1-0.3-24-3.7-32.7-10.2H6l0.1,17.6
		c0,0.7,0.4,1.4,1,1.8c9.2,5.9,21.3,8.8,35.9,8.7c31.2-0.3,48.3-16.6,48.1-47.4l-0.7-77.7C90.4,10.5,89.5,9.6,88.3,9.6z M45.6,80.7
		c-15.5,0.1-25.1-10.9-25.2-27.1c-0.1-8,2.1-14.6,6.6-19.9c4.5-5.1,10.5-7.7,18.2-7.8c7.7-0.1,13.9,2.4,18.7,7.7
		c4.8,5.2,7.2,11.8,7.3,19.6C71.2,69,60.9,80.6,45.6,80.7z"/>
	<path class="st0" d="M162.8,10.3c0-0.8-0.5-1.6-1.3-1.9c-2.2-1-4.8-1.5-7.9-1.4c-9.1,0.1-16.4,3.8-21.8,11.2
		c-1.2,1.6-3.8,0.8-3.8-1.3v-5.4c0-1.2-1-2.1-2.1-2.1l-16.2,0.1c-1.2,0-2.1,1-2.1,2.1l0.8,91.8c0,1.2,1,2.1,2.1,2.1l16.2-0.1
		c1.2,0,2.1-1,2.1-2.1l-0.4-47.8c-0.2-18,9.4-30,26.2-30.1c3.1,0,5.5,0.3,7.3,0.8h1.1L162.8,10.3z"/>
	<path class="st0" d="M208.9,6c-14.2,0.1-25.7,5-34.1,14.5c-8.5,9.6-12.8,21.6-12.6,36.4c0.1,15.3,4.6,27.5,13.6,36.7
		c8.8,9.2,20.7,13.7,35.8,13.5c14.3-0.1,26.6-3.1,36.8-9.2c0.6-0.4,1-1.1,1-1.9l-0.1-17.6H248c-9.6,6.8-20.9,10.2-34,10.3
		c-16.4,0.1-28.6-8-30.8-22.5c-0.2-1.3,0.8-2.4,2.1-2.5l64.5-0.5c1.1,0,2-0.8,2.1-1.9c0.3-2.3,0.4-4.6,0.4-6.9
		C252,25,236.6,5.8,208.9,6z M230,48l-44.9,0.4c-1.3,0-2.3-1.1-2.1-2.4c1.7-14,11.5-22.3,26-22.4c14-0.1,22.2,8.2,23.1,22.1
		C232.2,46.9,231.2,48,230,48z"/>
	<path class="st0" d="M306.6,5.2c-14.2,0.1-25.7,5-34.1,14.5c-8.5,9.6-12.8,21.6-12.6,36.4c0.1,15.3,4.6,27.5,13.6,36.7
		c8.8,9.2,20.7,13.7,35.8,13.5c14.3-0.1,26.6-3.1,36.8-9.2c0.6-0.4,1-1.1,1-1.9L347,77.6h-1.3c-9.6,6.8-20.9,10.2-34,10.3
		c-16.4,0.1-28.6-8-30.8-22.5c-0.2-1.3,0.8-2.4,2.1-2.4l64.5-0.5c1.1,0,2-0.8,2.1-1.9c0.3-2.3,0.4-4.6,0.4-6.9
		C349.7,24.2,334.3,5,306.6,5.2z M327.7,47.1l-44.9,0.4c-1.3,0-2.3-1.1-2.1-2.4c1.7-14,11.5-22.3,26-22.4c14-0.1,22.2,8.2,23.1,22.1
		C329.9,46.1,328.9,47.1,327.7,47.1z"/>
	<path class="st0" d="M438.1,13.9c-6.4-6.5-14.8-9.7-25.1-9.6c-11.4,0.1-20.2,3.8-26.6,11.2c-1.3,1.5-3.7,0.6-3.7-1.4V9.3
		c0-1.2-1-2.1-2.1-2.1l-16.2,0.1c-1.2,0-2.1,1-2.1,2.1l0.8,91.8c0,1.2,1,2.1,2.1,2.1l16.2-0.1c1.2,0,2.1-1,2.1-2.1L383,46.5
		c-0.1-14,8.9-23.6,23-23.7c13.9-0.1,21.4,8.6,21.5,23.3l0.5,54.6c0,1.2,1,2.1,2.1,2.1l16.2-0.1c1.2,0,2.1-1,2.1-2.1l-0.5-61.3
		C447.7,28.8,444.5,20.4,438.1,13.9z"/>
	<path class="st0" d="M507.6,47.1l-15-3.7c-8-2.1-12.1-4.5-12.1-10.5c-0.1-7.8,7-11.2,16.3-11.3c11.8-0.1,22.3,3.3,31.1,9.9h1.3
		l-0.1-17.6c0-0.7-0.4-1.4-0.9-1.8c-8.8-5.9-19.3-8.7-31.4-8.6c-10.4,0.1-19.1,2.7-26,8.1c-7.1,5.3-10.5,12.7-10.4,22.1
		c0.1,13.7,8.8,22.5,25.9,26.8l15,3.7c7.9,1.9,12.3,4.5,12.3,10.8c0.1,8-7.6,11.4-17.6,11.5c-12.9,0.1-23.9-3.1-33.1-9.7h-1.1
		l0.1,17.6c0,0.7,0.4,1.4,1,1.8c9.7,5.9,20.7,8.7,33.2,8.6c22.4-0.2,37.8-10.7,37.7-30.6C533.6,60.1,522.9,50.8,507.6,47.1z"/>
	<path class="st0" d="M597.6,3.1c-10.9,0.1-21.1,4.5-27.9,12.2c-1.3,1.5-3.7,0.5-3.7-1.4l-0.1-6.2c0-1.2-1-2.1-2.1-2.1l-16.2,0.1
		c-1.2,0-2.1,1-2.1,2.1l1,120.1c0,1.2,1,2.1,2.1,2.1l16.2-0.1c1.2,0,2.1-1,2.1-2.1l-0.3-34.5c0-1.9,2.4-2.9,3.7-1.5
		c7,7.6,17.2,11.8,28.1,11.7c13.1-0.1,23.5-5.1,31.2-14.8c7.6-9.7,11.3-21.6,11.2-35.8c-0.1-14-4-25.9-11.8-35.4
		C621.2,7.8,610.8,3,597.6,3.1z M613.4,75.9c-4.9,6.1-11.4,9.2-19.8,9.3c-8.4,0.1-15.2-3-20.1-9.1c-5.2-6-7.8-13.6-7.8-22.5
		c-0.1-8.9,2.4-16.6,7.5-22.7c4.9-6.1,11.6-9.2,20-9.3c8.4-0.1,15,3,19.9,8.9c5,6,7.4,13.6,7.5,22.5
		C620.6,62.1,618.3,69.8,613.4,75.9z"/>
	<path class="st0" d="M733.6,54.5c-1.6,0-3.2,0.2-4.8,0.5c-1.3,0.2-2.5,1-3.2,2.2c-4.2,6.8-10.5,9.9-18.4,9.7
		c-6.1-0.2-11.9-1.7-17.2-4.9c-2.6-1.5-4.9-3.4-6.9-5.7c-2.6-2.9-2.6-6.8,0-9.7c4.7-5.2,10.6-8.3,17.4-9.7c2.4-0.5,4.8-0.7,6.1-0.9
		c8.8,0.1,14.9,3.1,19,9.7c0.8,1.4,2.1,2.1,3.6,2.3c2.1,0.2,4.3,0.4,6.4,0.3c3.4-0.1,6.7-0.2,10.1-0.4c-0.9-12.9-5.5-23.6-13.8-32.1
		c-9.2-9.4-21.1-14-35.5-13.9c-14.4,0.1-26.2,5-35.2,14.5c-9,9.6-13.5,21.6-13.4,36.4s4.8,26.9,14,36.3s21.1,14,35.5,13.9
		s26.2-5,35.2-14.5c8.4-8.9,12.8-20.1,13.3-33.5c-1.6-0.1-3.2-0.1-4.8-0.2C738.5,54.8,736.1,54.5,733.6,54.5z"/>
	<path class="st0" d="M801.4,1c-14.4,0.1-26.2,5-35.2,14.5c-8.1,8.6-12.5,19.3-13.3,32.1c0.4,0,0.9,0,1.3-0.1
		c7.2-0.4,14.4-0.6,21.5-1.3c4.6-0.4,9.1-1.5,13.7-2.3c3.8-0.7,7.5-1.5,11.3-2.1c2.8-0.5,5.5-0.4,8.2,0.5c3.3,1.1,5.2,3.6,5.3,7.1
		c0.1,1.5,0.1,3.1-0.1,4.7c-0.4,3.7-2.8,6-6.8,6.8c-3,0.6-6,0.3-9-0.2c-6.4-1.2-12.7-2.6-19.1-3.6c-4.1-0.7-8.2-1-12.4-1.2
		c-4.7-0.2-9.4-0.4-14.1-0.6c0.8,13.2,5.4,24.3,13.9,32.9c9.2,9.4,21.1,14,35.5,13.9s26.2-5,35.2-14.5c9-9.6,13.5-21.8,13.4-36.6
		s-4.8-26.8-14-36.2C827.7,5.5,815.8,0.9,801.4,1z"/>
	<path class="st0" d="M948.1,34.9c-0.1-10.4-3.3-18.7-9.7-25.3C932,3.1,923.6-0.1,913.3,0c-11.4,0.1-20.2,3.8-26.6,11.2
		c-1.3,1.5-3.7,0.6-3.7-1.4V5c0-1.2-1-2.1-2.1-2.1L864.7,3c-1.2,0-2.1,1-2.1,2.1l0.8,91.8c0,1.2,1,2.1,2.1,2.1l16.2-0.1
		c1.2,0,2.1-1,2.1-2.1l-0.5-54.6c-0.1-14,8.9-23.6,22.9-23.7c13.9-0.1,21.4,8.6,21.5,23.3l0.5,54.6c0,1.2,1,2.1,2.1,2.1l16.2-0.1
		c1.2,0,2.1-1,2.1-2.1L948.1,34.9z"/>
</g>
</svg>
